<svg width="277" height="121" viewBox="0 0 277 121" fill="none" xmlns="http://www.w3.org/2000/svg">
<path d="M13.8873 106.462C12.7673 106.462 11.5913 106.378 10.3593 106.21C9.15531 106.07 8.00731 105.846 6.91531 105.538C5.82331 105.23 4.84331 104.866 3.97531 104.446C3.21931 104.082 2.68731 103.606 2.37931 103.018C2.07131 102.402 1.95931 101.758 2.04331 101.086C2.12731 100.414 2.36531 99.826 2.75731 99.322C3.14931 98.79 3.66731 98.44 4.31131 98.272C4.95531 98.076 5.68331 98.16 6.49531 98.524C7.55931 99.028 8.76331 99.42 10.1073 99.7C11.4513 99.98 12.7113 100.12 13.8873 100.12C15.7353 100.12 17.0233 99.882 17.7513 99.406C18.5073 98.902 18.8853 98.286 18.8853 97.558C18.8853 96.914 18.6193 96.396 18.0873 96.004C17.5833 95.612 16.6733 95.276 15.3573 94.996L10.4433 93.946C7.75531 93.386 5.75331 92.406 4.43731 91.006C3.12131 89.606 2.46331 87.8 2.46331 85.588C2.46331 84.132 2.75731 82.816 3.34531 81.64C3.96131 80.436 4.81531 79.414 5.90731 78.574C7.02731 77.734 8.34331 77.09 9.85531 76.642C11.3953 76.166 13.1033 75.928 14.9793 75.928C16.4353 75.928 17.9053 76.096 19.3893 76.432C20.9013 76.74 22.2033 77.216 23.2953 77.86C23.9393 78.196 24.4013 78.658 24.6813 79.246C24.9613 79.834 25.0733 80.45 25.0173 81.094C24.9613 81.71 24.7373 82.256 24.3453 82.732C23.9813 83.208 23.4773 83.53 22.8333 83.698C22.2173 83.838 21.4753 83.726 20.6073 83.362C19.7953 82.998 18.8713 82.732 17.8353 82.564C16.8273 82.368 15.8473 82.27 14.8953 82.27C13.8593 82.27 12.9773 82.396 12.2493 82.648C11.5213 82.872 10.9613 83.208 10.5693 83.656C10.2053 84.104 10.0233 84.622 10.0233 85.21C10.0233 85.798 10.2613 86.302 10.7373 86.722C11.2413 87.114 12.1513 87.45 13.4673 87.73L18.3393 88.78C21.0553 89.368 23.0853 90.334 24.4293 91.678C25.7733 93.022 26.4453 94.772 26.4453 96.928C26.4453 98.384 26.1513 99.7 25.5633 100.876C24.9753 102.052 24.1353 103.06 23.0433 103.9C21.9513 104.712 20.6353 105.342 19.0953 105.79C17.5553 106.238 15.8193 106.462 13.8873 106.462ZM37.4647 106.462C35.6727 106.462 34.2027 106.14 33.0547 105.496C31.9067 104.824 31.0387 103.83 30.4507 102.514C29.8907 101.198 29.6107 99.532 29.6107 97.516V88.696C29.6107 87.464 29.9327 86.54 30.5767 85.924C31.2207 85.28 32.1447 84.958 33.3487 84.958C34.5527 84.958 35.4767 85.28 36.1207 85.924C36.7647 86.54 37.0867 87.464 37.0867 88.696V97.726C37.0867 98.734 37.2967 99.49 37.7167 99.994C38.1367 100.498 38.7947 100.75 39.6907 100.75C40.6987 100.75 41.5247 100.386 42.1687 99.658C42.8127 98.93 43.1347 97.964 43.1347 96.76V88.696C43.1347 87.464 43.4567 86.54 44.1007 85.924C44.7447 85.28 45.6687 84.958 46.8727 84.958C48.0767 84.958 49.0007 85.28 49.6447 85.924C50.2887 86.54 50.6107 87.464 50.6107 88.696V102.598C50.6107 105.118 49.4067 106.378 46.9987 106.378C45.8227 106.378 44.9127 106.056 44.2687 105.412C43.6247 104.768 43.3027 103.83 43.3027 102.598V100.162L43.9747 102.22C43.3587 103.592 42.4907 104.642 41.3707 105.37C40.2787 106.098 38.9767 106.462 37.4647 106.462ZM58.6573 113.938C57.4813 113.938 56.5713 113.616 55.9273 112.972C55.2833 112.328 54.9613 111.39 54.9613 110.158V88.696C54.9613 87.492 55.2693 86.568 55.8853 85.924C56.5293 85.28 57.4393 84.958 58.6153 84.958C59.8193 84.958 60.7293 85.28 61.3453 85.924C61.9893 86.568 62.3113 87.492 62.3113 88.696V91.132L61.8493 89.074C62.2413 87.814 63.0533 86.806 64.2853 86.05C65.5453 85.266 66.9733 84.874 68.5693 84.874C70.3613 84.874 71.9293 85.308 73.2733 86.176C74.6453 87.044 75.7093 88.276 76.4653 89.872C77.2213 91.468 77.5993 93.4 77.5993 95.668C77.5993 97.88 77.2213 99.798 76.4653 101.422C75.7093 103.046 74.6453 104.292 73.2733 105.16C71.9293 106.028 70.3613 106.462 68.5693 106.462C67.0293 106.462 65.6433 106.098 64.4113 105.37C63.1793 104.642 62.3533 103.69 61.9333 102.514H62.4373V110.158C62.4373 111.39 62.1013 112.328 61.4293 112.972C60.7853 113.616 59.8613 113.938 58.6573 113.938ZM66.2173 100.96C66.9733 100.96 67.6313 100.778 68.1913 100.414C68.7793 100.022 69.2413 99.448 69.5773 98.692C69.9133 97.908 70.0813 96.9 70.0813 95.668C70.0813 93.792 69.7173 92.448 68.9893 91.636C68.2613 90.796 67.3373 90.376 66.2173 90.376C65.4613 90.376 64.7893 90.558 64.2013 90.922C63.6133 91.286 63.1513 91.86 62.8153 92.644C62.4793 93.4 62.3113 94.408 62.3113 95.668C62.3113 97.516 62.6753 98.86 63.4033 99.7C64.1313 100.54 65.0693 100.96 66.2173 100.96ZM92.2623 106.462C89.7423 106.462 87.5583 106.028 85.7103 105.16C83.8903 104.264 82.4903 103.004 81.5103 101.38C80.5303 99.756 80.0403 97.838 80.0403 95.626C80.0403 93.498 80.5023 91.636 81.4263 90.04C82.3783 88.416 83.6663 87.156 85.2903 86.26C86.9423 85.336 88.8183 84.874 90.9183 84.874C92.4583 84.874 93.8583 85.126 95.1183 85.63C96.3783 86.106 97.4563 86.82 98.3523 87.772C99.2483 88.696 99.9203 89.816 100.368 91.132C100.844 92.448 101.082 93.918 101.082 95.542C101.082 96.102 100.928 96.522 100.62 96.802C100.312 97.054 99.8223 97.18 99.1503 97.18H86.2983V93.652H95.6223L94.9503 94.198C94.9503 93.162 94.8103 92.322 94.5303 91.678C94.2503 91.034 93.8303 90.544 93.2703 90.208C92.7383 89.872 92.0663 89.704 91.2543 89.704C90.3863 89.704 89.6303 89.914 88.9863 90.334C88.3703 90.726 87.8943 91.314 87.5583 92.098C87.2223 92.882 87.0543 93.862 87.0543 95.038V95.416C87.0543 97.404 87.4883 98.832 88.3563 99.7C89.2523 100.54 90.6243 100.96 92.4723 100.96C93.0883 100.96 93.7883 100.89 94.5723 100.75C95.3843 100.582 96.1543 100.358 96.8823 100.078C97.6103 99.798 98.2403 99.756 98.7723 99.952C99.3043 100.12 99.7103 100.428 99.9903 100.876C100.298 101.296 100.466 101.786 100.494 102.346C100.522 102.878 100.396 103.41 100.116 103.942C99.8363 104.446 99.3743 104.838 98.7303 105.118C97.7503 105.566 96.7003 105.902 95.5803 106.126C94.4883 106.35 93.3823 106.462 92.2623 106.462ZM108.125 106.378C106.893 106.378 105.941 106.056 105.269 105.412C104.625 104.768 104.303 103.83 104.303 102.598V88.696C104.303 87.492 104.611 86.568 105.227 85.924C105.871 85.28 106.781 84.958 107.957 84.958C109.133 84.958 110.029 85.28 110.645 85.924C111.261 86.568 111.569 87.492 111.569 88.696V90.418H111.149C111.429 88.738 112.143 87.408 113.291 86.428C114.467 85.448 115.923 84.93 117.659 84.874C118.471 84.846 119.073 85.056 119.465 85.504C119.885 85.924 120.109 86.722 120.137 87.898C120.137 88.906 119.927 89.704 119.507 90.292C119.087 90.88 118.289 91.23 117.113 91.342L116.147 91.426C114.663 91.566 113.585 91.986 112.913 92.686C112.241 93.358 111.905 94.366 111.905 95.71V102.598C111.905 103.83 111.583 104.768 110.939 105.412C110.295 106.056 109.357 106.378 108.125 106.378ZM134.526 106.378C133.49 106.378 132.65 106.14 132.006 105.664C131.362 105.16 130.858 104.39 130.494 103.354L122.304 80.548C121.856 79.288 121.926 78.224 122.514 77.356C123.13 76.46 124.208 76.012 125.748 76.012C126.784 76.012 127.596 76.264 128.184 76.768C128.772 77.244 129.234 78 129.57 79.036L135.828 97.81H133.854L140.574 79.036C140.966 78 141.456 77.244 142.044 76.768C142.632 76.264 143.388 76.012 144.312 76.012C145.236 76.012 145.978 76.264 146.538 76.768C147.098 77.244 147.56 78.014 147.924 79.078L154.224 97.81H152.544L158.97 79.036C159.306 78 159.754 77.244 160.314 76.768C160.902 76.264 161.714 76.012 162.75 76.012C164.038 76.012 164.976 76.46 165.564 77.356C166.18 78.224 166.25 79.288 165.774 80.548L157.5 103.396C157.136 104.404 156.632 105.16 155.988 105.664C155.372 106.14 154.546 106.378 153.51 106.378C152.446 106.378 151.592 106.14 150.948 105.664C150.332 105.16 149.842 104.39 149.478 103.354L143.556 86.722H144.606L138.558 103.396C138.166 104.404 137.662 105.16 137.046 105.664C136.43 106.14 135.59 106.378 134.526 106.378ZM177.515 106.462C175.219 106.462 173.217 106.028 171.509 105.16C169.801 104.292 168.471 103.046 167.519 101.422C166.567 99.798 166.091 97.88 166.091 95.668C166.091 93.988 166.357 92.49 166.889 91.174C167.421 89.83 168.191 88.696 169.199 87.772C170.207 86.82 171.411 86.106 172.811 85.63C174.211 85.126 175.779 84.874 177.515 84.874C179.811 84.874 181.813 85.308 183.521 86.176C185.229 87.044 186.545 88.29 187.469 89.914C188.421 91.51 188.897 93.428 188.897 95.668C188.897 97.32 188.631 98.818 188.099 100.162C187.567 101.506 186.797 102.654 185.789 103.606C184.809 104.53 183.605 105.244 182.177 105.748C180.777 106.224 179.223 106.462 177.515 106.462ZM177.515 100.96C178.271 100.96 178.943 100.778 179.531 100.414C180.119 100.022 180.567 99.448 180.875 98.692C181.211 97.908 181.379 96.9 181.379 95.668C181.379 93.792 181.015 92.448 180.287 91.636C179.559 90.796 178.635 90.376 177.515 90.376C176.759 90.376 176.087 90.558 175.499 90.922C174.911 91.286 174.449 91.86 174.113 92.644C173.777 93.4 173.609 94.408 173.609 95.668C173.609 97.516 173.973 98.86 174.701 99.7C175.429 100.54 176.367 100.96 177.515 100.96ZM196.103 106.378C194.927 106.378 194.017 106.056 193.373 105.412C192.729 104.768 192.407 103.83 192.407 102.598V88.696C192.407 87.492 192.715 86.568 193.331 85.924C193.975 85.28 194.885 84.958 196.061 84.958C197.237 84.958 198.133 85.28 198.749 85.924C199.365 86.568 199.673 87.492 199.673 88.696V91.006L199.211 88.948C199.799 87.716 200.667 86.736 201.815 86.008C202.991 85.252 204.377 84.874 205.973 84.874C207.485 84.874 208.773 85.238 209.837 85.966C210.929 86.694 211.713 87.8 212.189 89.284H211.601C212.245 87.912 213.211 86.834 214.499 86.05C215.787 85.266 217.215 84.874 218.783 84.874C220.407 84.874 221.737 85.196 222.773 85.84C223.809 86.456 224.579 87.436 225.083 88.78C225.615 90.096 225.881 91.762 225.881 93.778V102.598C225.881 103.83 225.545 104.768 224.873 105.412C224.229 106.056 223.305 106.378 222.101 106.378C220.925 106.378 220.015 106.056 219.371 105.412C218.727 104.768 218.405 103.83 218.405 102.598V93.988C218.405 92.784 218.223 91.916 217.859 91.384C217.495 90.852 216.893 90.586 216.053 90.586C215.017 90.586 214.219 90.95 213.659 91.678C213.127 92.406 212.861 93.442 212.861 94.786V102.598C212.861 103.83 212.539 104.768 211.895 105.412C211.251 106.056 210.327 106.378 209.123 106.378C207.919 106.378 206.995 106.056 206.351 105.412C205.707 104.768 205.385 103.83 205.385 102.598V93.988C205.385 92.784 205.203 91.916 204.839 91.384C204.475 90.852 203.873 90.586 203.033 90.586C202.025 90.586 201.241 90.95 200.681 91.678C200.149 92.406 199.883 93.442 199.883 94.786V102.598C199.883 105.118 198.623 106.378 196.103 106.378ZM241.477 106.462C238.957 106.462 236.773 106.028 234.925 105.16C233.105 104.264 231.705 103.004 230.725 101.38C229.745 99.756 229.255 97.838 229.255 95.626C229.255 93.498 229.717 91.636 230.641 90.04C231.593 88.416 232.881 87.156 234.505 86.26C236.157 85.336 238.033 84.874 240.133 84.874C241.673 84.874 243.073 85.126 244.333 85.63C245.593 86.106 246.671 86.82 247.567 87.772C248.463 88.696 249.135 89.816 249.583 91.132C250.059 92.448 250.297 93.918 250.297 95.542C250.297 96.102 250.143 96.522 249.835 96.802C249.527 97.054 249.037 97.18 248.365 97.18H235.513V93.652H244.837L244.165 94.198C244.165 93.162 244.025 92.322 243.745 91.678C243.465 91.034 243.045 90.544 242.485 90.208C241.953 89.872 241.281 89.704 240.469 89.704C239.601 89.704 238.845 89.914 238.201 90.334C237.585 90.726 237.109 91.314 236.773 92.098C236.437 92.882 236.269 93.862 236.269 95.038V95.416C236.269 97.404 236.703 98.832 237.571 99.7C238.467 100.54 239.839 100.96 241.687 100.96C242.303 100.96 243.003 100.89 243.787 100.75C244.599 100.582 245.369 100.358 246.097 100.078C246.825 99.798 247.455 99.756 247.987 99.952C248.519 100.12 248.925 100.428 249.205 100.876C249.513 101.296 249.681 101.786 249.709 102.346C249.737 102.878 249.611 103.41 249.331 103.942C249.051 104.446 248.589 104.838 247.945 105.118C246.965 105.566 245.915 105.902 244.795 106.126C243.703 106.35 242.597 106.462 241.477 106.462ZM257.214 106.378C256.038 106.378 255.128 106.056 254.484 105.412C253.84 104.768 253.518 103.83 253.518 102.598V88.696C253.518 87.492 253.826 86.568 254.442 85.924C255.086 85.28 255.996 84.958 257.172 84.958C258.348 84.958 259.244 85.28 259.86 85.924C260.476 86.568 260.784 87.492 260.784 88.696V90.67L260.322 88.948C260.994 87.632 261.946 86.624 263.178 85.924C264.438 85.224 265.866 84.874 267.462 84.874C269.114 84.874 270.472 85.196 271.536 85.84C272.6 86.456 273.398 87.436 273.93 88.78C274.462 90.096 274.728 91.762 274.728 93.778V102.598C274.728 103.83 274.406 104.768 273.762 105.412C273.118 106.056 272.194 106.378 270.99 106.378C269.786 106.378 268.862 106.056 268.218 105.412C267.574 104.768 267.252 103.83 267.252 102.598V94.072C267.252 92.812 267.028 91.916 266.58 91.384C266.16 90.852 265.53 90.586 264.69 90.586C263.57 90.586 262.674 90.95 262.002 91.678C261.33 92.378 260.994 93.33 260.994 94.534V102.598C260.994 105.118 259.734 106.378 257.214 106.378Z" fill="#8B7FF5"/>
<path d="M166.896 11.3482C165.975 9.12747 164.648 7.11508 162.988 5.42368C161.327 3.72723 159.368 2.37908 157.219 1.45255C154.99 0.487984 152.6 -0.00573693 150.186 5.02928e-05C146.801 5.02928e-05 143.497 0.966 140.626 2.79057C139.94 3.22704 139.287 3.70644 138.669 4.22876C138.051 3.70644 137.398 3.22704 136.712 2.79057C133.841 0.966 130.537 5.02928e-05 127.152 5.02928e-05C124.714 5.02928e-05 122.351 0.486603 120.119 1.45255C117.963 2.38273 116.019 3.72075 114.35 5.42368C112.688 7.11318 111.36 9.12603 110.442 11.3482C109.488 13.6593 109 16.1135 109 18.6393C109 21.022 109.467 23.5048 110.394 26.0306C111.17 28.1414 112.283 30.3309 113.704 32.5418C115.957 36.0407 119.054 39.6899 122.9 43.3891C129.274 49.5211 135.585 53.7569 135.853 53.9287L137.481 55.0162C138.202 55.4956 139.129 55.4956 139.85 55.0162L141.478 53.9287C141.746 53.7498 148.05 49.5211 154.431 43.3891C158.277 39.6899 161.374 36.0407 163.627 32.5418C165.048 30.3309 166.168 28.1414 166.937 26.0306C167.864 23.5048 168.331 21.022 168.331 18.6393C168.338 16.1135 167.85 13.6593 166.896 11.3482Z" fill="#8B7FF5"/>
</svg>
